<svg preserveAspectRatio="none" width="100%" height="100%" overflow="visible" style="display: block;" viewBox="0 0 16 16" fill="none" xmlns="http://www.w3.org/2000/svg">
<g id="&#234;&#184;&#176;&#237;&#131;&#128;&#236;&#182;&#148;&#234;&#176;&#128;emoji" clip-path="url(#clip0_0_4)">
<path id="Vector" d="M13.7782 6.66645H9.33377V2.22201C9.33377 1.86838 9.19329 1.52924 8.94324 1.2792C8.69319 1.02915 8.35406 0.888672 8.00043 0.888672C7.64681 0.888672 7.30767 1.02915 7.05762 1.2792C6.80758 1.52924 6.6671 1.86838 6.6671 2.22201V6.66645H2.22266C1.86903 6.66645 1.5299 6.80692 1.27985 7.05697C1.0298 7.30702 0.889323 7.64616 0.889323 7.99978C0.889323 8.3534 1.0298 8.69254 1.27985 8.94259C1.5299 9.19264 1.86903 9.33312 2.22266 9.33312H6.6671V13.7776C6.6671 14.1312 6.80758 14.4703 7.05762 14.7204C7.30767 14.9704 7.64681 15.1109 8.00043 15.1109C8.35406 15.1109 8.69319 14.9704 8.94324 14.7204C9.19329 14.4703 9.33377 14.1312 9.33377 13.7776V9.33312H13.7782C14.1318 9.33312 14.471 9.19264 14.721 8.94259C14.9711 8.69254 15.1115 8.3534 15.1115 7.99978C15.1115 7.64616 14.9711 7.30702 14.721 7.05697C14.471 6.80692 14.1318 6.66645 13.7782 6.66645Z" fill="var(--fill-0, #1D1D1D)"/>
</g>
<defs>
<clipPath id="clip0_0_4">
<rect width="16" height="16" fill="white"/>
</clipPath>
</defs>
</svg>
