<svg preserveAspectRatio="none" width="100%" height="100%" overflow="visible" style="display: block;" viewBox="0 0 16 16" fill="none" xmlns="http://www.w3.org/2000/svg">
<g id="&#236;&#135;&#188;&#237;&#149;&#145;emoji" clip-path="url(#clip0_0_4)">
<path id="Vector" d="M4.88889 0C3.9459 0 3.04153 0.374602 2.37473 1.0414C1.70794 1.70819 1.33333 2.61256 1.33333 3.55556V7.11111H2.22222V3.55556C2.22222 2.84831 2.50317 2.17003 3.00327 1.66994C3.50337 1.16984 4.18164 0.888889 4.88889 0.888889C5.59613 0.888889 6.27441 1.16984 6.77451 1.66994C7.2746 2.17003 7.55556 2.84831 7.55556 3.55556V7.11111H8.44444V3.55556C8.44444 2.61256 8.06984 1.70819 7.40305 1.0414C6.73625 0.374602 5.83188 0 4.88889 0Z" fill="var(--fill-0, #F4900C)"/>
<path id="Vector_2" d="M0.44401 4.44423C0.44401 4.11621 0.840603 3.95193 1.07255 4.18388C1.21634 4.32767 1.44946 4.32767 1.59325 4.18388L1.77734 3.99978C2.0228 3.75432 2.42077 3.75432 2.66623 3.99978C2.91169 4.24524 3.30966 4.24524 3.55512 3.99978C3.80058 3.75432 4.19855 3.75432 4.44401 3.99978C4.68947 4.24524 5.08744 4.24524 5.3329 3.99978C5.57836 3.75432 5.97633 3.75432 6.22179 3.99978C6.46725 4.24524 6.86522 4.24524 7.11068 3.99978C7.35614 3.75432 7.75411 3.75432 7.99957 3.99978L8.18366 4.18388C8.32745 4.32767 8.56057 4.32767 8.70436 4.18388C8.93631 3.95193 9.3329 4.11621 9.3329 4.44423V13.7776H0.44401V4.44423Z" fill="var(--fill-0, #DD2E44)"/>
<path id="Vector_3" d="M11.1115 2.22201C10.1686 2.22201 9.26418 2.59661 8.59739 3.2634C7.93059 3.9302 7.55599 4.83457 7.55599 5.77756V9.33312H8.44488V5.77756C8.44488 5.07032 8.72583 4.39204 9.22593 3.89194C9.72602 3.39185 10.4043 3.11089 11.1115 3.11089C11.8188 3.11089 12.4971 3.39185 12.9972 3.89194C13.4973 4.39204 13.7782 5.07032 13.7782 5.77756V9.33312H14.6671V5.77756C14.6671 4.83457 14.2925 3.9302 13.6257 3.2634C12.9589 2.59661 12.0545 2.22201 11.1115 2.22201Z" fill="var(--fill-0, #FFCC4D)"/>
<path id="Vector_4" d="M6.66667 6.66688C6.66667 6.33886 7.06326 6.17459 7.29521 6.40653C7.43899 6.55032 7.67212 6.55032 7.8159 6.40653L8 6.22244C8.24546 5.97698 8.64343 5.97698 8.88889 6.22244C9.13435 6.4679 9.53232 6.4679 9.77778 6.22244C10.0232 5.97698 10.4212 5.97698 10.6667 6.22244C10.9121 6.4679 11.3101 6.4679 11.5556 6.22244C11.801 5.97698 12.199 5.97698 12.4444 6.22244C12.6899 6.4679 13.0879 6.4679 13.3333 6.22244C13.5788 5.97698 13.9768 5.97698 14.2222 6.22244L14.4063 6.40653C14.5501 6.55032 14.7832 6.55032 14.927 6.40653C15.159 6.17459 15.5556 6.33886 15.5556 6.66688V16.0002H6.66667V6.66688Z" fill="var(--fill-0, #744EAA)"/>
</g>
<defs>
<clipPath id="clip0_0_4">
<rect width="16" height="16" fill="white"/>
</clipPath>
</defs>
</svg>
