<svg preserveAspectRatio="none" width="100%" height="100%" overflow="visible" style="display: block;" viewBox="0 0 14 14.0004" fill="none" xmlns="http://www.w3.org/2000/svg">
<g id="Group 2085674549">
<path id="Vector" d="M14 7C14 10.8659 10.8659 14 7 14C3.13406 14 0 10.8659 0 7C0 3.13406 3.13406 0 7 0C10.8659 0 14 3.13406 14 7Z" fill="var(--fill-0, #D6DEE4)"/>
<path id="Vector_2" d="M11.6667 7.00029C11.6667 9.57784 9.57756 11.667 7 11.667C4.42245 11.667 2.33333 9.57784 2.33333 7.00029C2.33333 4.42273 4.42245 2.33362 7 2.33362C9.57756 2.33362 11.6667 4.42273 11.6667 7.00029Z" fill="var(--fill-0, #C1CAD1)"/>
<path id="Vector_3" d="M11.2774 7.00019C11.2774 9.36269 9.36212 11.278 6.99962 11.278C4.63712 11.278 2.72184 9.36269 2.72184 7.00019C2.72184 4.63769 4.63712 2.72241 6.99962 2.72241C9.36212 2.72241 11.2774 4.6373 11.2774 7.00019Z" fill="var(--fill-0, #D6DEE4)"/>
<g id="Group">
<path id="Vector_4" d="M0.388889 0.777778C0.603666 0.777778 0.777778 0.603666 0.777778 0.388889C0.777778 0.174111 0.603666 0 0.388889 0C0.174111 0 0 0.174111 0 0.388889C0 0.603666 0.174111 0.777778 0.388889 0.777778Z" fill="var(--fill-0, #99AAB5)"/>
<path id="Vector_5" d="M0 0.388794H0.777778V3.11102H0V0.388794Z" fill="var(--fill-0, #99AAB5)"/>
<path id="Vector_6" d="M1.94406 0.777778C2.15884 0.777778 2.33295 0.603666 2.33295 0.388889C2.33295 0.174111 2.15884 0 1.94406 0C1.72929 0 1.55518 0.174111 1.55518 0.388889C1.55518 0.603666 1.72929 0.777778 1.94406 0.777778Z" fill="var(--fill-0, #99AAB5)"/>
<path id="Vector_7" d="M1.55518 0.388794H2.33295V3.11102H1.55518V0.388794Z" fill="var(--fill-0, #99AAB5)"/>
<path id="Vector_8" d="M3.50038 0.777778C3.71516 0.777778 3.88927 0.603666 3.88927 0.388889C3.88927 0.174111 3.71516 0 3.50038 0C3.2856 0 3.11149 0.174111 3.11149 0.388889C3.11149 0.603666 3.2856 0.777778 3.50038 0.777778Z" fill="var(--fill-0, #99AAB5)"/>
<path id="Vector_9" d="M3.11111 0.388794H3.88889V3.11102H3.11111V0.388794ZM1.16667 5.44435H2.72222V13.2221H1.16667V5.44435Z" fill="var(--fill-0, #99AAB5)"/>
<path id="Vector_10" d="M1.94444 14.0004C2.374 14.0004 2.72222 13.6522 2.72222 13.2226C2.72222 12.793 2.374 12.4448 1.94444 12.4448C1.51489 12.4448 1.16667 12.793 1.16667 13.2226C1.16667 13.6522 1.51489 14.0004 1.94444 14.0004Z" fill="var(--fill-0, #99AAB5)"/>
<path id="Vector_11" d="M3.11111 3.11121C3.11111 3.21435 3.07014 3.31326 2.99721 3.38619C2.92428 3.45912 2.82536 3.50009 2.72222 3.50009C2.61908 3.50009 2.52017 3.45912 2.44724 3.38619C2.37431 3.31326 2.33333 3.21435 2.33333 3.11121H1.55556C1.55556 3.21435 1.51458 3.31326 1.44165 3.38619C1.36872 3.45912 1.26981 3.50009 1.16667 3.50009C1.06353 3.50009 0.964612 3.45912 0.891681 3.38619C0.81875 3.31326 0.777778 3.21435 0.777778 3.11121H0C0 4.61465 0.388889 5.83343 1.94444 5.83343C3.5 5.83343 3.88889 4.61465 3.88889 3.11121H3.11111Z" fill="var(--fill-0, #99AAB5)"/>
<path id="Vector_12" d="M0.388889 3.50019C0.603666 3.50019 0.777778 3.32608 0.777778 3.1113C0.777778 2.89652 0.603666 2.72241 0.388889 2.72241C0.174111 2.72241 0 2.89652 0 3.1113C0 3.32608 0.174111 3.50019 0.388889 3.50019Z" fill="var(--fill-0, #99AAB5)"/>
<path id="Vector_13" d="M1.94406 3.50019C2.15884 3.50019 2.33295 3.32608 2.33295 3.1113C2.33295 2.89652 2.15884 2.72241 1.94406 2.72241C1.72929 2.72241 1.55518 2.89652 1.55518 3.1113C1.55518 3.32608 1.72929 3.50019 1.94406 3.50019Z" fill="var(--fill-0, #99AAB5)"/>
<path id="Vector_14" d="M3.50038 3.50019C3.71516 3.50019 3.88927 3.32608 3.88927 3.1113C3.88927 2.89652 3.71516 2.72241 3.50038 2.72241C3.2856 2.72241 3.11149 2.89652 3.11149 3.1113C3.11149 3.32608 3.2856 3.50019 3.50038 3.50019Z" fill="var(--fill-0, #99AAB5)"/>
</g>
<g id="Group_2">
<path id="Vector_15" d="M11.6667 5.44482H13.2222V13.2226H11.6667V5.44482Z" fill="var(--fill-0, #99AAB5)"/>
<path id="Vector_16" d="M12.4444 14.0004C12.874 14.0004 13.2222 13.6522 13.2222 13.2226C13.2222 12.793 12.874 12.4448 12.4444 12.4448C12.0149 12.4448 11.6667 12.793 11.6667 13.2226C11.6667 13.6522 12.0149 14.0004 12.4444 14.0004Z" fill="var(--fill-0, #99AAB5)"/>
<path id="Vector_17" d="M12.4444 0C12.8333 0 13.2222 0.388889 13.2222 1.16667V7.38889C13.2222 7.38889 10.5 8.16667 10.5 4.27778C10.5 1.94444 11.6667 0 12.4444 0Z" fill="var(--fill-0, #99AAB5)"/>
</g>
</g>
</svg>
