<svg preserveAspectRatio="none" width="100%" height="100%" overflow="visible" style="display: block;" viewBox="0 0 16 9.77778" fill="none" xmlns="http://www.w3.org/2000/svg">
<g id="Group 2085674550">
<path id="Vector" d="M0 8.88889H16V9.77778H0V8.88889Z" fill="var(--fill-0, #939598)"/>
<path id="Vector_2" d="M3.55556 8C3.55556 7.64638 3.41508 7.30724 3.16503 7.05719C2.91498 6.80714 2.57584 6.66667 2.22222 6.66667C1.8686 6.66667 1.52946 6.80714 1.27941 7.05719C1.02936 7.30724 0.888889 7.64638 0.888889 8C0.888889 8.35362 1.02936 8.69276 1.27941 8.94281C1.52946 9.19286 1.8686 9.33333 2.22222 9.33333C2.57584 9.33333 2.91498 9.19286 3.16503 8.94281C3.41508 8.69276 3.55556 8.35362 3.55556 8Z" fill="var(--fill-0, #58595B)"/>
<path id="Vector_3" d="M3.11111 8C3.11111 7.76425 3.01746 7.53816 2.85076 7.37146C2.68406 7.20476 2.45797 7.11111 2.22222 7.11111C1.98647 7.11111 1.76038 7.20476 1.59368 7.37146C1.42698 7.53816 1.33333 7.76425 1.33333 8C1.33333 8.23575 1.42698 8.46184 1.59368 8.62854C1.76038 8.79524 1.98647 8.88889 2.22222 8.88889C2.45797 8.88889 2.68406 8.79524 2.85076 8.62854C3.01746 8.46184 3.11111 8.23575 3.11111 8Z" fill="var(--fill-0, #292F33)"/>
<path id="Vector_4" d="M7.11111 8C7.11111 7.64638 6.97064 7.30724 6.72059 7.05719C6.47054 6.80714 6.1314 6.66667 5.77778 6.66667C5.42416 6.66667 5.08502 6.80714 4.83497 7.05719C4.58492 7.30724 4.44444 7.64638 4.44444 8C4.44444 8.35362 4.58492 8.69276 4.83497 8.94281C5.08502 9.19286 5.42416 9.33333 5.77778 9.33333C6.1314 9.33333 6.47054 9.19286 6.72059 8.94281C6.97064 8.69276 7.11111 8.35362 7.11111 8Z" fill="var(--fill-0, #58595B)"/>
<path id="Vector_5" d="M6.66667 8C6.66667 7.76425 6.57302 7.53816 6.40632 7.37146C6.23962 7.20476 6.01353 7.11111 5.77778 7.11111C5.54203 7.11111 5.31594 7.20476 5.14924 7.37146C4.98254 7.53816 4.88889 7.76425 4.88889 8C4.88889 8.23575 4.98254 8.46184 5.14924 8.62854C5.31594 8.79524 5.54203 8.88889 5.77778 8.88889C6.01353 8.88889 6.23962 8.79524 6.40632 8.62854C6.57302 8.46184 6.66667 8.23575 6.66667 8Z" fill="var(--fill-0, #292F33)"/>
<path id="Vector_6" d="M14.2222 9.33333C14.9586 9.33333 15.5556 8.73638 15.5556 8C15.5556 7.26362 14.9586 6.66667 14.2222 6.66667C13.4858 6.66667 12.8889 7.26362 12.8889 8C12.8889 8.73638 13.4858 9.33333 14.2222 9.33333Z" fill="var(--fill-0, #58595B)"/>
<path id="Vector_7" d="M14.2222 8.88889C14.7131 8.88889 15.1111 8.49092 15.1111 8C15.1111 7.50908 14.7131 7.11111 14.2222 7.11111C13.7313 7.11111 13.3333 7.50908 13.3333 8C13.3333 8.49092 13.7313 8.88889 14.2222 8.88889Z" fill="var(--fill-0, #292F33)"/>
<path id="Vector_8" d="M10.6667 9.33333C11.403 9.33333 12 8.73638 12 8C12 7.26362 11.403 6.66667 10.6667 6.66667C9.93029 6.66667 9.33333 7.26362 9.33333 8C9.33333 8.73638 9.93029 9.33333 10.6667 9.33333Z" fill="var(--fill-0, #58595B)"/>
<path id="Vector_9" d="M10.6667 8.88889C11.1576 8.88889 11.5556 8.49092 11.5556 8C11.5556 7.50908 11.1576 7.11111 10.6667 7.11111C10.1757 7.11111 9.77778 7.50908 9.77778 8C9.77778 8.49092 10.1757 8.88889 10.6667 8.88889Z" fill="var(--fill-0, #292F33)"/>
<path id="Vector_10" d="M0 6.22222H16V8H0V6.22222Z" fill="var(--fill-0, #5C913B)"/>
<path id="Vector_11" d="M0 0.888889H16V6.22222H0V0.888889Z" fill="var(--fill-0, #FFE8B6)"/>
<path id="Vector_12" d="M0 5.33333H16V6.22222H0V5.33333Z" fill="var(--fill-0, #FFAC33)"/>
<path id="Vector_13" d="M14.4689 0H1.53111C0.875111 0 0.308 0.36 0 0.888889H16C15.692 0.36 15.1249 0 14.4689 0Z" fill="var(--fill-0, #77B255)"/>
<path id="Vector_14" d="M2.22222 3.55556C2.22222 3.67343 2.1754 3.78648 2.09205 3.86983C2.0087 3.95318 1.89565 4 1.77778 4H0.888889C0.771015 4 0.657969 3.95318 0.574619 3.86983C0.49127 3.78648 0.444444 3.67343 0.444444 3.55556V2.66667C0.444444 2.54879 0.49127 2.43575 0.574619 2.3524C0.657969 2.26905 0.771015 2.22222 0.888889 2.22222H1.77778C1.89565 2.22222 2.0087 2.26905 2.09205 2.3524C2.1754 2.43575 2.22222 2.54879 2.22222 2.66667V3.55556ZM4.88889 3.55556C4.88889 3.67343 4.84206 3.78648 4.75871 3.86983C4.67536 3.95318 4.56232 4 4.44444 4H3.55556C3.43768 4 3.32464 3.95318 3.24129 3.86983C3.15794 3.78648 3.11111 3.67343 3.11111 3.55556V2.66667C3.11111 2.54879 3.15794 2.43575 3.24129 2.3524C3.32464 2.26905 3.43768 2.22222 3.55556 2.22222H4.44444C4.56232 2.22222 4.67536 2.26905 4.75871 2.3524C4.84206 2.43575 4.88889 2.54879 4.88889 2.66667V3.55556ZM7.55556 3.55556C7.55556 3.67343 7.50873 3.78648 7.42538 3.86983C7.34203 3.95318 7.22898 4 7.11111 4H6.22222C6.10435 4 5.9913 3.95318 5.90795 3.86983C5.8246 3.78648 5.77778 3.67343 5.77778 3.55556V2.66667C5.77778 2.54879 5.8246 2.43575 5.90795 2.3524C5.9913 2.26905 6.10435 2.22222 6.22222 2.22222H7.11111C7.22898 2.22222 7.34203 2.26905 7.42538 2.3524C7.50873 2.43575 7.55556 2.54879 7.55556 2.66667V3.55556ZM10.2222 3.55556C10.2222 3.67343 10.1754 3.78648 10.092 3.86983C10.0087 3.95318 9.89565 4 9.77778 4H8.88889C8.77101 4 8.65797 3.95318 8.57462 3.86983C8.49127 3.78648 8.44444 3.67343 8.44444 3.55556V2.66667C8.44444 2.54879 8.49127 2.43575 8.57462 2.3524C8.65797 2.26905 8.77101 2.22222 8.88889 2.22222H9.77778C9.89565 2.22222 10.0087 2.26905 10.092 2.3524C10.1754 2.43575 10.2222 2.54879 10.2222 2.66667V3.55556ZM12.8889 3.55556C12.8889 3.67343 12.8421 3.78648 12.7587 3.86983C12.6754 3.95318 12.5623 4 12.4444 4H11.5556C11.4377 4 11.3246 3.95318 11.2413 3.86983C11.1579 3.78648 11.1111 3.67343 11.1111 3.55556V2.66667C11.1111 2.54879 11.1579 2.43575 11.2413 2.3524C11.3246 2.26905 11.4377 2.22222 11.5556 2.22222H12.4444C12.5623 2.22222 12.6754 2.26905 12.7587 2.3524C12.8421 2.43575 12.8889 2.54879 12.8889 2.66667V3.55556ZM15.5556 3.55556C15.5556 3.67343 15.5087 3.78648 15.4254 3.86983C15.342 3.95318 15.229 4 15.1111 4H14.2222C14.1043 4 13.9913 3.95318 13.908 3.86983C13.8246 3.78648 13.7778 3.67343 13.7778 3.55556V2.66667C13.7778 2.54879 13.8246 2.43575 13.908 2.3524C13.9913 2.26905 14.1043 2.22222 14.2222 2.22222H15.1111C15.229 2.22222 15.342 2.26905 15.4254 2.3524C15.5087 2.43575 15.5556 2.54879 15.5556 2.66667V3.55556Z" fill="var(--fill-0, #55ACEE)"/>
</g>
</svg>
