<svg preserveAspectRatio="none" width="100%" height="100%" overflow="visible" style="display: block;" viewBox="0 0 18 18" fill="none" xmlns="http://www.w3.org/2000/svg">
<g id="&#236;&#149;&#161;&#237;&#139;&#176;&#235;&#185;&#132;&#235;&#148;&#148;emoji" clip-path="url(#clip0_0_4)">
<path id="Vector" d="M17.2498 16.2117C17.1835 16.2117 17.1199 16.1854 17.073 16.1385C17.0261 16.0916 16.9998 16.028 16.9998 15.9617V14.7502C16.9998 14.6839 17.0261 14.6203 17.073 14.5734C17.1199 14.5266 17.1835 14.5002 17.2498 14.5002C17.3161 14.5002 17.3797 14.5266 17.4266 14.5734C17.4735 14.6203 17.4998 14.6839 17.4998 14.7502V15.9617C17.4998 16.028 17.4735 16.0916 17.4266 16.1385C17.3797 16.1854 17.3161 16.2117 17.2498 16.2117ZM12.9998 17.6182V16.2502C12.9998 16.1839 12.9735 16.1203 12.9266 16.0734C12.8797 16.0266 12.8161 16.0002 12.7498 16.0002C12.6835 16.0002 12.6199 16.0266 12.573 16.0734C12.5261 16.1203 12.4998 16.1839 12.4998 16.2502V17.6182C12.4998 17.6845 12.5261 17.7481 12.573 17.795C12.6199 17.8419 12.6835 17.8682 12.7498 17.8682C12.8161 17.8682 12.8797 17.8419 12.9266 17.795C12.9735 17.7481 12.9998 17.6845 12.9998 17.6182ZM9.99981 16.6722V14.2502C9.99981 14.1839 9.97347 14.1203 9.92659 14.0734C9.8797 14.0266 9.81611 14.0002 9.74981 14.0002C9.68351 14.0002 9.61992 14.0266 9.57303 14.0734C9.52615 14.1203 9.49981 14.1839 9.49981 14.2502V16.6722C9.49981 16.7385 9.52615 16.8021 9.57303 16.849C9.61992 16.8959 9.68351 16.9222 9.74981 16.9222C9.81611 16.9222 9.8797 16.8959 9.92659 16.849C9.97347 16.8021 9.99981 16.7385 9.99981 16.6722ZM8.74381 0.495723C8.73583 0.463852 8.7216 0.433882 8.70196 0.407545C8.68231 0.381208 8.65764 0.359029 8.62937 0.342289C8.6011 0.325549 8.56979 0.314582 8.53725 0.310022C8.50471 0.305462 8.47159 0.3074 8.43981 0.315723C8.17099 0.384539 7.93272 0.540845 7.76253 0.76001C7.59234 0.979174 7.49991 1.24874 7.49981 1.52622V3.71722L7.04281 5.43072L3.08981 6.74822L3.49031 5.31722L3.49981 3.02622C3.49981 2.68322 3.73181 2.38472 4.06381 2.29972C4.19781 2.26572 4.27831 2.12922 4.24381 1.99572C4.20931 1.86222 4.07531 1.78072 3.93981 1.81522C3.67091 1.88406 3.43257 2.04044 3.26237 2.25971C3.09218 2.47897 2.9998 2.74865 2.99981 3.02622V5.21572L0.62931 13.6827C0.614412 13.7455 0.62438 13.8117 0.657127 13.8673C0.689873 13.9229 0.742862 13.9637 0.805003 13.9811C0.867145 13.9986 0.933624 13.9913 0.990529 13.9608C1.04743 13.9304 1.09035 13.8791 1.11031 13.8177L1.34431 12.9822L5.38831 11.6342L5.24131 12.1857C5.2242 12.2498 5.23327 12.3181 5.26651 12.3756C5.29975 12.433 5.35444 12.4749 5.41856 12.492C5.48268 12.5091 5.55096 12.5 5.6084 12.4668C5.66583 12.4335 5.7077 12.3788 5.72481 12.3147L7.99131 3.81472L7.99981 1.52622C7.99981 1.18322 8.23181 0.884723 8.56381 0.799723C8.62797 0.783236 8.68296 0.741961 8.71671 0.684963C8.75045 0.627965 8.7602 0.559903 8.74381 0.495723ZM6.88881 6.00922L6.54281 7.30622L2.56231 8.63322L2.92731 7.33022L6.88881 6.00922ZM6.04281 9.18072L2.03481 10.5167L2.39981 9.21372L6.38881 7.88422L6.04281 9.18072ZM1.50731 12.4012L1.87231 11.0982L5.88881 9.75922L5.54281 11.0562L1.50731 12.4012Z" fill="var(--fill-0, #AEB3B2)"/>
<path id="Vector_2" d="M17.343 12.9283C16.4681 12.5771 15.7431 11.9317 15.293 11.1033L11.5205 4.13626C11.1205 3.39312 10.4455 2.83605 9.64 2.58426L7.825 2.01176C7.78755 1.99998 7.74786 1.99719 7.70914 2.00361C7.67041 2.01002 7.63374 2.02547 7.60209 2.04869C7.57044 2.07192 7.54471 2.10227 7.52698 2.13728C7.50924 2.1723 7.5 2.21101 7.5 2.25026V3.75026C7.5 3.85926 7.571 3.95576 7.675 3.98876L8.429 4.22676C9.11057 4.43987 9.68176 4.91111 10.0205 5.53976L13.67 12.2793C14.2547 13.3576 15.1979 14.1977 16.3365 14.6543L17.158 14.9828C17.1959 14.9978 17.2369 15.0033 17.2775 14.9988C17.318 14.9943 17.3568 14.98 17.3906 14.9571C17.4243 14.9341 17.4519 14.9033 17.471 14.8672C17.49 14.8312 17.5 14.791 17.5 14.7503V13.1603C17.5 13.1103 17.485 13.0616 17.457 13.0202C17.4291 12.9789 17.3893 12.9468 17.343 12.9283Z" fill="var(--fill-0, #DD551F)"/>
<path id="Vector_3" d="M17.343 12.9283C16.4681 12.5771 15.7431 11.9317 15.293 11.1033L11.5205 4.13626C11.1205 3.39312 10.4455 2.83605 9.64 2.58426L7.825 2.01176C7.78755 1.99998 7.74786 1.99719 7.70914 2.00361C7.67041 2.01002 7.63374 2.02547 7.60209 2.04869C7.57044 2.07192 7.54471 2.10227 7.52698 2.13728C7.50924 2.1723 7.5 2.21101 7.5 2.25026V2.37426L9.2865 2.93776C10.0918 3.19003 10.7666 3.74696 11.167 4.48976L14.9395 11.4563C15.3889 12.2852 16.1141 12.9308 16.9895 13.2813C17.0358 13.2998 17.0756 13.3319 17.1035 13.3732C17.1315 13.4146 17.1465 13.4633 17.1465 13.5133V14.9773L17.1575 14.9818C17.1953 14.9969 17.2363 15.0026 17.2768 14.9984C17.3173 14.9941 17.3562 14.98 17.39 14.9573C17.4239 14.9344 17.4516 14.9035 17.4708 14.8675C17.4899 14.8314 17.5 14.7911 17.5 14.7503V13.1603C17.5 13.1103 17.485 13.0616 17.457 13.0202C17.4291 12.9789 17.3893 12.9468 17.343 12.9283Z" fill="var(--fill-0, #FA8948)"/>
<path id="Vector_4" d="M10.4595 5.30174C10.0591 4.55894 9.38425 4.00201 8.57899 3.74974L7.82499 3.51174C7.77462 3.49591 7.72054 3.49644 7.67049 3.51324L3.17049 5.01324C3.12044 5.03003 3.07699 5.06224 3.04636 5.10524C3.01574 5.14824 2.99951 5.19984 3.00001 5.25263C3.00051 5.30542 3.01771 5.35669 3.04914 5.39911C3.08057 5.44152 3.12463 5.4729 3.17499 5.48874L3.92899 5.72674C4.61056 5.93985 5.18174 6.41109 5.52049 7.03974C5.54848 7.09132 5.59373 7.1314 5.6483 7.15297C5.70287 7.17454 5.7633 7.17623 5.81899 7.15774L10.319 5.65774C10.3537 5.64638 10.3855 5.6275 10.4121 5.60244C10.4388 5.57739 10.4595 5.54677 10.4729 5.51277C10.4863 5.47877 10.4921 5.44223 10.4898 5.40575C10.4874 5.36928 10.4771 5.33376 10.4595 5.30174Z" fill="var(--fill-0, #FAA572)"/>
<path id="Vector_5" d="M14.927 13.1375C14.6027 12.8133 14.327 12.4438 14.1085 12.0405L10.459 5.30104C10.431 5.24936 10.3857 5.2092 10.331 5.18762C10.2763 5.16604 10.2158 5.16442 10.16 5.18304L5.66003 6.68304C5.62534 6.69456 5.59359 6.71354 5.56703 6.73865C5.54047 6.76375 5.51974 6.79438 5.50629 6.82837C5.49285 6.86236 5.48702 6.89889 5.48922 6.93537C5.49142 6.97186 5.5016 7.00742 5.51903 7.03954L9.16853 13.779C9.40992 14.2248 9.71458 14.6332 10.073 14.9915C10.1059 15.0243 10.1473 15.0473 10.1925 15.0579C10.2377 15.0685 10.285 15.0663 10.329 15.0515L14.829 13.5515C14.8695 13.5381 14.9058 13.5145 14.9346 13.4831C14.9634 13.4517 14.9837 13.4134 14.9935 13.3719C15.0033 13.3304 15.0024 13.2871 14.9907 13.2461C14.9791 13.2051 14.9572 13.1677 14.927 13.1375Z" fill="var(--fill-0, #FAC19C)"/>
<path id="Vector_6" d="M17.3284 14.9873C17.3767 14.9708 17.4188 14.94 17.4492 14.899C17.4795 14.858 17.4965 14.8086 17.498 14.7576C17.4996 14.7066 17.4855 14.6564 17.4577 14.6136C17.4299 14.5709 17.3897 14.5376 17.3424 14.5183L16.5209 14.1898C15.9232 13.9521 15.3807 13.5942 14.9269 13.1383C14.8941 13.1054 14.8528 13.0823 14.8075 13.0716C14.7623 13.061 14.715 13.0631 14.6709 13.0778L10.1709 14.5778C10.1306 14.5913 10.0944 14.6149 10.0657 14.6464C10.0371 14.6778 10.0169 14.716 10.0072 14.7574C9.9974 14.7988 9.99836 14.842 10.01 14.8829C10.0216 14.9239 10.0434 14.9612 10.0734 14.9913C10.5756 15.4946 11.1751 15.8902 11.8354 16.1538L12.6569 16.4823C12.7117 16.5041 12.7725 16.5059 12.8284 16.4873L17.3284 14.9873Z" fill="var(--fill-0, #FAA572)"/>
<path id="Vector_7" d="M12.843 14.4283C11.9681 14.0771 11.2431 13.4317 10.793 12.6033L7.0205 5.63676C6.6205 4.89362 5.94552 4.33655 5.14 4.08476L3.325 3.51176C3.28755 3.49998 3.24786 3.49719 3.20914 3.50361C3.17041 3.51002 3.13374 3.52547 3.10209 3.54869C3.07044 3.57192 3.04471 3.60227 3.02698 3.63728C3.00924 3.6723 3 3.71101 3 3.75026V5.25026C3 5.35926 3.071 5.45576 3.175 5.48876L3.929 5.72676C4.61057 5.93987 5.18176 6.41111 5.5205 7.03976L9.17 13.7793C9.7547 14.8576 10.6979 15.6977 11.8365 16.1543L12.658 16.4828C12.6959 16.4978 12.7369 16.5033 12.7775 16.4988C12.818 16.4943 12.8568 16.48 12.8906 16.4571C12.9243 16.4341 12.9519 16.4033 12.971 16.3672C12.99 16.3312 13 16.291 13 16.2503V14.6603C13 14.6103 12.985 14.5616 12.957 14.5202C12.9291 14.4789 12.8893 14.4468 12.843 14.4283Z" fill="var(--fill-0, #DD551F)"/>
<path id="Vector_8" d="M12.843 14.4283C11.9681 14.0771 11.2431 13.4317 10.793 12.6033L7.0205 5.63676C6.6205 4.89362 5.94552 4.33655 5.14 4.08476L3.325 3.51176C3.28755 3.49998 3.24786 3.49719 3.20914 3.50361C3.17041 3.51002 3.13374 3.52547 3.10209 3.54869C3.07044 3.57192 3.04471 3.60227 3.02698 3.63728C3.00924 3.6723 3 3.71101 3 3.75026V3.87426L4.7865 4.43776C5.59176 4.69003 6.26658 5.24696 6.667 5.98976L10.4395 12.9563C10.8889 13.7852 11.6141 14.4308 12.4895 14.7813C12.5358 14.7998 12.5756 14.8319 12.6035 14.8732C12.6315 14.9146 12.6465 14.9633 12.6465 15.0133V16.4773L12.6575 16.4818C12.6953 16.4969 12.7363 16.5026 12.7768 16.4984C12.8173 16.4941 12.8562 16.48 12.89 16.4573C12.9239 16.4344 12.9516 16.4035 12.9708 16.3675C12.9899 16.3314 13 16.2911 13 16.2503V14.6603C13 14.6103 12.985 14.5616 12.957 14.5202C12.9291 14.4789 12.8893 14.4468 12.843 14.4283Z" fill="var(--fill-0, #FA8948)"/>
<path id="Vector_9" d="M5.25043 4.37136C5.18412 4.37136 5.12053 4.34502 5.07365 4.29814C5.02677 4.25126 5.00043 4.18767 5.00043 4.12136V3.02636C5.00043 2.79286 4.89443 2.57736 4.71043 2.43386C4.62027 2.36342 4.5151 2.31469 4.40307 2.29146C4.29104 2.26822 4.17517 2.27109 4.06443 2.29986C4.00124 2.31349 3.93522 2.30211 3.88024 2.26812C3.82526 2.23412 3.78558 2.18015 3.76954 2.11753C3.7535 2.05491 3.76233 1.98851 3.7942 1.93226C3.82606 1.87601 3.87847 1.8343 3.94043 1.81586C4.125 1.76822 4.31804 1.7636 4.50469 1.80234C4.69133 1.84109 4.86658 1.92218 5.01693 2.03936C5.32393 2.27786 5.50043 2.63736 5.50043 3.02636V4.12086C5.50049 4.15374 5.49408 4.1863 5.48154 4.21669C5.46901 4.24708 5.4506 4.2747 5.42738 4.29796C5.40416 4.32123 5.37658 4.33969 5.34621 4.35229C5.31585 4.36488 5.2833 4.37136 5.25043 4.37136ZM9.75043 2.87136C9.68412 2.87136 9.62053 2.84502 9.57365 2.79814C9.52677 2.75126 9.50043 2.68767 9.50043 2.62136V1.52636C9.50043 1.29286 9.39443 1.07736 9.21043 0.933863C9.12031 0.863337 9.01516 0.814518 8.90313 0.791193C8.7911 0.767868 8.6752 0.770663 8.56443 0.799363C8.50124 0.812992 8.43522 0.801615 8.38024 0.767618C8.32526 0.733622 8.28558 0.679649 8.26954 0.617028C8.2535 0.554408 8.26233 0.488006 8.2942 0.431761C8.32606 0.375515 8.37847 0.333797 8.44043 0.315363C8.62497 0.267337 8.8181 0.262518 9.0048 0.301282C9.19151 0.340045 9.36676 0.421346 9.51693 0.538863C9.82393 0.777863 10.0004 1.13736 10.0004 1.52636V2.62086C10.0005 2.65374 9.99408 2.6863 9.98154 2.71669C9.96901 2.74708 9.9506 2.7747 9.92738 2.79796C9.90416 2.82123 9.87658 2.83969 9.84621 2.85229C9.81585 2.86488 9.7833 2.87136 9.75043 2.87136Z" fill="var(--fill-0, #AEB3B2)"/>
</g>
<defs>
<clipPath id="clip0_0_4">
<rect width="18" height="18" fill="white"/>
</clipPath>
</defs>
</svg>
