<svg preserveAspectRatio="none" width="100%" height="100%" overflow="visible" style="display: block;" viewBox="0 0 14 14.9029" fill="none" xmlns="http://www.w3.org/2000/svg">
<g id="Group 2085674548">
<path id="Vector" d="M3.09143 5.73667H2.1882C2.12832 5.73667 2.07088 5.71288 2.02854 5.67053C1.98619 5.62819 1.9624 5.57075 1.9624 5.51086V2.34953C1.9624 2.28964 1.98619 2.2322 2.02854 2.18986C2.07088 2.14751 2.12832 2.12372 2.1882 2.12372H3.09143C3.15132 2.12372 3.20875 2.14751 3.2511 2.18986C3.29345 2.2322 3.31724 2.28964 3.31724 2.34953V5.51086C3.31724 5.57075 3.29345 5.62819 3.2511 5.67053C3.20875 5.71288 3.15132 5.73667 3.09143 5.73667Z" fill="var(--fill-0, #A0041E)"/>
<path id="Vector_2" d="M1.12886 6.32314L6.99982 0.452087L12.8708 6.32314V14.0007H1.12886V6.32314Z" fill="var(--fill-0, #FFE8B6)"/>
<path id="Vector_3" d="M7.00018 6.32284H7.45179V13.5488H7.00018V6.32284Z" fill="var(--fill-0, #FFCC4D)"/>
<path id="Vector_4" d="M12.8714 6.7742C12.7517 6.77417 12.6368 6.72657 12.5522 6.64187L7.00047 1.09011L1.4488 6.64187C1.40687 6.6838 1.35709 6.71706 1.3023 6.73975C1.24752 6.76245 1.1888 6.77413 1.12951 6.77413C1.07021 6.77413 1.01149 6.76245 0.956707 6.73975C0.901923 6.71706 0.852145 6.6838 0.810216 6.64187C0.768286 6.59994 0.735025 6.55016 0.712333 6.49538C0.689641 6.44059 0.677961 6.38187 0.677961 6.32258C0.677961 6.26328 0.689641 6.20456 0.712333 6.14977C0.735025 6.09499 0.768286 6.04521 0.810216 6.00328L6.68118 0.132228C6.76587 0.0475624 6.88072 0 7.00047 0C7.12023 0 7.23507 0.0475624 7.31976 0.132228L13.1907 6.00328C13.2541 6.06636 13.2973 6.14683 13.3148 6.2345C13.3324 6.32217 13.3235 6.41307 13.2893 6.49567C13.2551 6.57827 13.1971 6.64884 13.1227 6.69843C13.0483 6.74802 12.9608 6.77439 12.8714 6.7742Z" fill="var(--fill-0, #66757F)"/>
<path id="Vector_5" d="M6.99985 6.77453C6.91044 6.77473 6.823 6.74836 6.74861 6.69877C6.67422 6.64918 6.61624 6.57861 6.58203 6.49601C6.54782 6.41341 6.53892 6.3225 6.55646 6.23484C6.574 6.14717 6.6172 6.06669 6.68056 6.00362L9.61604 3.06809C9.65797 3.02616 9.70775 2.9929 9.76253 2.97021C9.81732 2.94751 9.87603 2.93583 9.93533 2.93583C9.99463 2.93583 10.0533 2.94751 10.1081 2.97021C10.1629 2.9929 10.2127 3.02616 10.2546 3.06809C10.2966 3.11002 10.3298 3.1598 10.3525 3.21458C10.3752 3.26937 10.3869 3.32809 10.3869 3.38738C10.3869 3.44668 10.3752 3.5054 10.3525 3.56019C10.3298 3.61497 10.2966 3.66475 10.2546 3.70668L7.31914 6.64221C7.23446 6.72691 7.11961 6.77451 6.99985 6.77453Z" fill="var(--fill-0, #66757F)"/>
<path id="Vector_6" d="M3.38657 10.8382H5.19303V13.548H3.38657V10.8382Z" fill="var(--fill-0, #C1694F)"/>
<path id="Vector_7" d="M3.38657 6.77493H5.19303V8.58141H3.38657V6.77493ZM9.03174 6.77493H10.8382V8.58141H9.03174V6.77493ZM9.03174 10.8395H10.8382V12.646H9.03174V10.8395Z" fill="var(--fill-0, #55ACEE)"/>
<path id="Vector_8" d="M14 14.2255C14 14.4051 13.9286 14.5774 13.8016 14.7045C13.6745 14.8315 13.5022 14.9029 13.3226 14.9029H0.677419C0.497757 14.9029 0.325452 14.8315 0.198412 14.7045C0.0713708 14.5774 0 14.4051 0 14.2255C0 14.0458 0.0713708 13.8735 0.198412 13.7465C0.325452 13.6194 0.497757 13.548 0.677419 13.548H13.3226C13.5022 13.548 13.6745 13.6194 13.8016 13.7465C13.9286 13.8735 14 14.0458 14 14.2255Z" fill="var(--fill-0, #5C913B)"/>
</g>
</svg>
