<svg preserveAspectRatio="none" width="100%" height="100%" overflow="visible" style="display: block;" viewBox="0 0 29 26.0001" fill="none" xmlns="http://www.w3.org/2000/svg">
<g id="Frame 2117906430">
<g id="Vector 257">
<path d="M20.7633 24.7233L20.0995 24.3914C19.9406 24.312 19.7687 24.2618 19.592 24.2432L6.4765 22.8626C6.03827 22.8165 5.64332 22.5776 5.39889 22.211L2.82169 18.3452L0.361959 15.5071C-0.0798655 14.9973 -0.121495 14.2533 0.260693 13.6974L2.00873 11.1548C2.2143 10.8558 2.30298 10.4918 2.25798 10.1317L1.98465 7.94512C1.89706 7.24436 2.31626 6.57919 2.98623 6.35586L5.26555 5.59609C5.87052 5.39443 6.27857 4.82829 6.27857 4.19059V3.28305C6.27857 2.46483 6.94187 1.80153 7.76009 1.80153H11.217C11.5375 1.80153 11.8494 1.69756 12.1059 1.50523L13.7178 0.296308C14.2757 -0.122145 15.05 -0.0948069 15.577 0.361955L17.8669 2.34657C18.1913 2.62773 18.6218 2.75434 19.0467 2.69363L20.8065 2.44223C21.4236 2.35408 22.0299 2.66164 22.3233 3.21168L23.5609 5.53231C23.7219 5.83422 23.9825 6.07108 24.2983 6.20268L25.8613 6.8539C26.4133 7.08394 26.773 7.62337 26.773 8.22146V11.3525C26.773 11.7211 26.9103 12.0764 27.1582 12.3491L28.3746 13.6871C28.872 14.2342 28.8899 15.0642 28.4165 15.6321L27.1163 17.1924C26.8945 17.4586 26.773 17.7942 26.773 18.1408V21.0409C26.773 21.7651 26.2494 22.3832 25.535 22.5023L24.3691 22.6966C24.009 22.7566 23.6838 22.9474 23.4558 23.2324L22.5827 24.3237C22.1463 24.8692 21.3882 25.0358 20.7633 24.7233Z" fill="var(--fill-0, #9FCD06)"/>
<path d="M20.7633 24.7233L20.0995 24.3914C19.9406 24.312 19.7687 24.2618 19.592 24.2432L6.4765 22.8626C6.03827 22.8165 5.64332 22.5776 5.39889 22.211L2.82169 18.3452L0.361959 15.5071C-0.0798655 14.9973 -0.121495 14.2533 0.260693 13.6974L2.00873 11.1548C2.2143 10.8558 2.30298 10.4918 2.25798 10.1317L1.98465 7.94512C1.89706 7.24436 2.31626 6.57919 2.98623 6.35586L5.26555 5.59609C5.87052 5.39443 6.27857 4.82829 6.27857 4.19059V3.28305C6.27857 2.46483 6.94187 1.80153 7.76009 1.80153H11.217C11.5375 1.80153 11.8494 1.69756 12.1059 1.50523L13.7178 0.296308C14.2757 -0.122145 15.05 -0.0948069 15.577 0.361955L17.8669 2.34657C18.1913 2.62773 18.6218 2.75434 19.0467 2.69363L20.8065 2.44223C21.4236 2.35408 22.0299 2.66164 22.3233 3.21168L23.5609 5.53231C23.7219 5.83422 23.9825 6.07108 24.2983 6.20268L25.8613 6.8539C26.4133 7.08394 26.773 7.62337 26.773 8.22146V11.3525C26.773 11.7211 26.9103 12.0764 27.1582 12.3491L28.3746 13.6871C28.872 14.2342 28.8899 15.0642 28.4165 15.6321L27.1163 17.1924C26.8945 17.4586 26.773 17.7942 26.773 18.1408V21.0409C26.773 21.7651 26.2494 22.3832 25.535 22.5023L24.3691 22.6966C24.009 22.7566 23.6838 22.9474 23.4558 23.2324L22.5827 24.3237C22.1463 24.8692 21.3882 25.0358 20.7633 24.7233Z" fill="var(--fill-1, black)" fill-opacity="0.2"/>
</g>
<g id="Union">
<path d="M12.6983 6.24619C18.2894 6.24635 22.8214 10.6684 22.8214 16.1231C22.8214 17.011 23.0369 17.8909 23.2264 18.7584C23.2851 19.0274 23.3155 19.3016 23.3155 19.5802C23.3155 22.9392 18.9493 25.6939 13.3878 25.9747C13.1599 25.9897 12.9301 26.0001 12.6983 26.0001C12.6681 26.0001 12.6377 25.9974 12.6075 25.9972C12.5553 25.9976 12.5027 26.0001 12.4503 26.0001C6.45016 26 1.58604 23.1257 1.58604 19.5802C1.58607 18.8426 1.79743 18.1346 2.1853 17.4753C2.42721 17.0641 2.57433 16.6003 2.57432 16.1231C2.57432 10.6683 7.10716 6.24619 12.6983 6.24619Z" fill="var(--fill-0, #B6D612)"/>
<path d="M12.6983 6.24619C18.2894 6.24635 22.8214 10.6684 22.8214 16.1231C22.8214 17.011 23.0369 17.8909 23.2264 18.7584C23.2851 19.0274 23.3155 19.3016 23.3155 19.5802C23.3155 22.9392 18.9493 25.6939 13.3878 25.9747C13.1599 25.9897 12.9301 26.0001 12.6983 26.0001C12.6681 26.0001 12.6377 25.9974 12.6075 25.9972C12.5553 25.9976 12.5027 26.0001 12.4503 26.0001C6.45016 26 1.58604 23.1257 1.58604 19.5802C1.58607 18.8426 1.79743 18.1346 2.1853 17.4753C2.42721 17.0641 2.57433 16.6003 2.57432 16.1231C2.57432 10.6683 7.10716 6.24619 12.6983 6.24619Z" fill="url(#paint0_linear_0_4)" fill-opacity="0.2"/>
</g>
<ellipse id="Ellipse 106" cx="7.26624" cy="15.8763" rx="0.740761" ry="1.2346" fill="var(--fill-0, black)"/>
<ellipse id="Ellipse 107" cx="14.1803" cy="15.8763" rx="0.740761" ry="1.2346" fill="var(--fill-0, black)"/>
<path id="Polygon 16" d="M17.3901 5.32453C17.8989 5.02591 18.4985 5.3721 18.4943 5.96205L18.4779 8.26418C18.4725 9.02679 18.0853 9.75701 17.4553 10.193C15.9729 11.2189 14.0992 10.1373 14.2458 8.34055C14.3082 7.57656 14.7471 6.87568 15.4051 6.48949L17.3901 5.32453Z" fill="var(--fill-0, #A99D77)"/>
<path id="Polygon 17" d="M5.61382 5.32453C5.10502 5.02591 4.5054 5.3721 4.50961 5.96205L4.52602 8.26418C4.53145 9.02679 4.9186 9.75701 5.54864 10.193C7.03102 11.2189 8.90469 10.1373 8.75808 8.34055C8.69574 7.57656 8.25682 6.87568 7.59879 6.48949L5.61382 5.32453Z" fill="var(--fill-0, #A99D77)"/>
<g id="Polygon 15">
<path d="M10.7234 20.5674C9.03312 20.5674 8.37913 19.3639 8.13832 18.6373C8.04521 18.3564 8.2677 18.0982 8.56366 18.0982L12.8832 18.0982C13.1792 18.0982 13.4017 18.3564 13.3086 18.6373C13.0678 19.3639 12.4138 20.5674 10.7234 20.5674Z" fill="var(--fill-0, #FF9292)"/>
<path d="M10.7234 20.5674C9.03312 20.5674 8.37913 19.3639 8.13832 18.6373C8.04521 18.3564 8.2677 18.0982 8.56366 18.0982L12.8832 18.0982C13.1792 18.0982 13.4017 18.3564 13.3086 18.6373C13.0678 19.3639 12.4138 20.5674 10.7234 20.5674Z" fill="var(--fill-1, black)" fill-opacity="0.2"/>
<path d="M10.7234 20.5674C9.03312 20.5674 8.37913 19.3639 8.13832 18.6373C8.04521 18.3564 8.2677 18.0982 8.56366 18.0982L12.8832 18.0982C13.1792 18.0982 13.4017 18.3564 13.3086 18.6373C13.0678 19.3639 12.4138 20.5674 10.7234 20.5674Z" fill="var(--fill-2, #FF6565)" fill-opacity="0.5"/>
</g>
<path id="Ellipse 121" d="M10 16.2C10 17.1941 9.1041 18 7.99953 18C6.89496 18 6 17.1941 6 16.2C6 15.2059 6.89496 15 7.99953 15C9.1041 15 10 15.2059 10 16.2Z" fill="url(#paint1_linear_0_4)" fill-opacity="0.9"/>
<path id="Ellipse 122" d="M16 16.2C16 17.1941 15.1041 18 13.9995 18C12.895 18 12 17.1941 12 16.2C12 15.2059 12.895 15 13.9995 15C15.1041 15 16 15.2059 16 16.2Z" fill="url(#paint2_linear_0_4)" fill-opacity="0.9"/>
<path id="Polygon 14" d="M9.28896 16.4535C9.0417 16.3024 9.0417 15.9433 9.28896 15.7922L10.2538 15.2025C10.5734 15.0072 10.9715 14.9917 11.3053 15.1617C12.0908 15.5615 12.0908 16.6835 11.3055 17.0836C10.9716 17.2538 10.5733 17.2384 10.2535 17.0429L9.28896 16.4535Z" fill="var(--fill-0, #62902C)"/>
<path id="Polygon 18" fill-rule="evenodd" clip-rule="evenodd" d="M9.28896 15.7922C9.0417 15.9433 9.0417 16.3024 9.28896 16.4535L10.2535 17.0429C10.5733 17.2384 10.9716 17.2538 11.3055 17.0836C11.5758 16.9459 11.753 16.7227 11.8373 16.4729C11.6411 16.4053 11.5001 16.2191 11.5001 16C11.5001 15.943 11.4654 15.8304 11.2833 15.709C11.1048 15.59 10.8294 15.5 10.5001 15.5C10.1957 15.5 9.93537 15.5766 9.75599 15.6836C9.63707 15.7545 9.50059 15.7705 9.37623 15.7388L9.28896 15.7922Z" fill="var(--fill-0, #62902C)"/>
<path id="Union_2" fill-rule="evenodd" clip-rule="evenodd" d="M10.4999 14.5C10.999 14.5 11.4735 14.6341 11.8378 14.877C12.1987 15.1175 12.4999 15.5047 12.4999 16C12.4999 16.2761 12.2761 16.5 11.9999 16.5C11.943 16.5 11.8878 16.4902 11.8368 16.4727C11.6414 16.4048 11.5011 16.2185 11.5009 16C11.5009 15.9431 11.466 15.8303 11.2841 15.709C11.1055 15.59 10.7042 15.2021 10.3749 15.2021C10.33 15.2022 10.283 15.2064 10.2353 15.2139L9.4384 15.7012C9.43422 15.7319 9.42091 15.7495 9.37688 15.7383L9.3759 15.7393C9.25237 15.7078 9.14072 15.6289 9.07023 15.5107C8.92901 15.2737 9.00714 14.9667 9.24406 14.8252C9.59534 14.6157 10.0362 14.5 10.4999 14.5Z" fill="var(--fill-0, #575A4C)"/>
</g>
<defs>
<linearGradient id="paint0_linear_0_4" x1="12.4508" y1="6.24619" x2="12.4508" y2="26.0001" gradientUnits="userSpaceOnUse">
<stop stop-color="white" stop-opacity="0"/>
<stop offset="1" stop-color="white"/>
</linearGradient>
<linearGradient id="paint1_linear_0_4" x1="8" y1="15" x2="9.5" y2="20" gradientUnits="userSpaceOnUse">
<stop stop-color="#1D1D1D"/>
<stop offset="1" stop-color="#838383"/>
</linearGradient>
<linearGradient id="paint2_linear_0_4" x1="14" y1="15" x2="15.5" y2="20" gradientUnits="userSpaceOnUse">
<stop stop-color="#1D1D1D"/>
<stop offset="1" stop-color="#838383"/>
</linearGradient>
</defs>
</svg>
