<svg preserveAspectRatio="none" width="100%" height="100%" overflow="visible" style="display: block;" viewBox="0 0 79.8887 72.2222" fill="none" xmlns="http://www.w3.org/2000/svg">
<g id="Frame 2117906430">
<g id="Vector 257">
<path d="M57.6759 68.676L55.8319 67.754C55.3905 67.5333 54.913 67.3938 54.4223 67.3421L17.9903 63.5072C16.773 63.379 15.6759 62.7157 14.9969 61.6972L7.83802 50.9589L1.00544 43.0751C-0.221849 41.659 -0.337486 39.5926 0.724146 38.0484L5.57982 30.9856C6.15082 30.1551 6.39718 29.1438 6.27217 28.1437L5.51292 22.0698C5.2696 20.1232 6.43406 18.2755 8.29509 17.6552L14.6265 15.5447C16.307 14.9845 17.4405 13.4119 17.4405 11.6405V9.11959C17.4405 6.84675 19.283 5.00425 21.5558 5.00425H31.1583C32.0487 5.00425 32.9151 4.71544 33.6275 4.18118L38.105 0.823076C39.6548 -0.339292 41.8054 -0.263353 43.2694 1.00543L49.6304 6.51824C50.5315 7.29924 51.7271 7.65095 52.9076 7.48231L57.7959 6.78398C59.5101 6.5391 61.1942 7.39345 62.009 8.92133L65.447 15.3675C65.8943 16.2062 66.618 16.8641 67.4954 17.2297L71.8368 19.0386C73.3704 19.6776 74.3693 21.176 74.3693 22.8374V31.5347C74.3693 32.5585 74.7509 33.5455 75.4396 34.303L78.8185 38.0198C80.1999 39.5394 80.2496 41.8449 78.9348 43.4226L75.3232 47.7566C74.7069 48.4962 74.3693 49.4284 74.3693 50.3912V58.4469C74.3693 60.4586 72.9149 62.1755 70.9306 62.5062L67.6919 63.046C66.6918 63.2127 65.7884 63.7428 65.155 64.5345L62.7298 67.5659C61.5176 69.0812 59.4115 69.5438 57.6759 68.676Z" fill="var(--fill-0, #9FCD06)"/>
<path d="M57.6759 68.676L55.8319 67.754C55.3905 67.5333 54.913 67.3938 54.4223 67.3421L17.9903 63.5072C16.773 63.379 15.6759 62.7157 14.9969 61.6972L7.83802 50.9589L1.00544 43.0751C-0.221849 41.659 -0.337486 39.5926 0.724146 38.0484L5.57982 30.9856C6.15082 30.1551 6.39718 29.1438 6.27217 28.1437L5.51292 22.0698C5.2696 20.1232 6.43406 18.2755 8.29509 17.6552L14.6265 15.5447C16.307 14.9845 17.4405 13.4119 17.4405 11.6405V9.11959C17.4405 6.84675 19.283 5.00425 21.5558 5.00425H31.1583C32.0487 5.00425 32.9151 4.71544 33.6275 4.18118L38.105 0.823076C39.6548 -0.339292 41.8054 -0.263353 43.2694 1.00543L49.6304 6.51824C50.5315 7.29924 51.7271 7.65095 52.9076 7.48231L57.7959 6.78398C59.5101 6.5391 61.1942 7.39345 62.009 8.92133L65.447 15.3675C65.8943 16.2062 66.618 16.8641 67.4954 17.2297L71.8368 19.0386C73.3704 19.6776 74.3693 21.176 74.3693 22.8374V31.5347C74.3693 32.5585 74.7509 33.5455 75.4396 34.303L78.8185 38.0198C80.1999 39.5394 80.2496 41.8449 78.9348 43.4226L75.3232 47.7566C74.7069 48.4962 74.3693 49.4284 74.3693 50.3912V58.4469C74.3693 60.4586 72.9149 62.1755 70.9306 62.5062L67.6919 63.046C66.6918 63.2127 65.7884 63.7428 65.155 64.5345L62.7298 67.5659C61.5176 69.0812 59.4115 69.5438 57.6759 68.676Z" fill="var(--fill-1, black)" fill-opacity="0.2"/>
</g>
<g id="Union">
<path d="M35.2697 17.3497C50.8008 17.3497 63.3918 29.6331 63.3918 44.7853C63.3918 47.2495 63.9933 49.6925 64.5163 52.1006C64.679 52.8497 64.7629 53.6134 64.7629 54.3888C64.7629 63.7013 52.6831 71.3453 37.2775 72.1505C36.6145 72.1962 35.9447 72.2208 35.2697 72.2208C35.1984 72.2208 35.1271 72.2184 35.0559 72.2179C34.8989 72.2193 34.7417 72.2218 34.5842 72.2218C17.9167 72.2218 4.4045 64.2378 4.4045 54.3888C4.40451 52.3453 4.98678 50.3823 6.05794 48.5542C6.72997 47.4072 7.14864 46.1146 7.14864 44.7853C7.14867 29.6332 19.7389 17.35 35.2697 17.3497Z" fill="var(--fill-0, #B6D612)"/>
<path d="M35.2697 17.3497C50.8008 17.3497 63.3918 29.6331 63.3918 44.7853C63.3918 47.2495 63.9933 49.6925 64.5163 52.1006C64.679 52.8497 64.7629 53.6134 64.7629 54.3888C64.7629 63.7013 52.6831 71.3453 37.2775 72.1505C36.6145 72.1962 35.9447 72.2208 35.2697 72.2208C35.1984 72.2208 35.1271 72.2184 35.0559 72.2179C34.8989 72.2193 34.7417 72.2218 34.5842 72.2218C17.9167 72.2218 4.4045 64.2378 4.4045 54.3888C4.40451 52.3453 4.98678 50.3823 6.05794 48.5542C6.72997 47.4072 7.14864 46.1146 7.14864 44.7853C7.14867 29.6332 19.7389 17.35 35.2697 17.3497Z" fill="url(#paint0_linear_325_1149)" fill-opacity="0.2"/>
</g>
<ellipse id="Ellipse 106" cx="20.1827" cy="44.1003" rx="2.05767" ry="3.42945" fill="var(--fill-0, black)"/>
<ellipse id="Ellipse 107" cx="39.3878" cy="44.1004" rx="2.05767" ry="3.42945" fill="var(--fill-0, black)"/>
<path id="Polygon 16" d="M48.3046 14.79C49.7179 13.9605 51.3835 14.9221 51.3718 16.5609L51.3262 22.9557C51.3111 25.0741 50.2357 27.1024 48.4856 28.3136C44.3679 31.1632 39.1633 28.1587 39.5705 23.1678C39.7437 21.0456 40.9629 19.0987 42.7908 18.026L48.3046 14.79Z" fill="var(--fill-0, #A99D77)"/>
<path id="Polygon 17" d="M15.5918 14.7901C14.1784 13.9606 12.5128 14.9223 12.5245 16.561L12.5701 22.9558C12.5852 25.0742 13.6606 27.1026 15.4107 28.3137C19.5284 31.1633 24.7331 28.1589 24.3258 23.168C24.1527 21.0458 22.9334 19.0989 21.1056 18.0261L15.5918 14.7901Z" fill="var(--fill-0, #A99D77)"/>
<g id="Polygon 15">
<path d="M29.7853 57.1318C25.0899 57.1318 23.2733 53.7888 22.6044 51.7706C22.3457 50.9902 22.9638 50.2729 23.7859 50.2729L35.7847 50.2729C36.6068 50.2729 37.2248 50.9902 36.9662 51.7706C36.2973 53.7888 34.4806 57.1318 29.7853 57.1318Z" fill="var(--fill-0, #FF9292)"/>
<path d="M29.7853 57.1318C25.0899 57.1318 23.2733 53.7888 22.6044 51.7706C22.3457 50.9902 22.9638 50.2729 23.7859 50.2729L35.7847 50.2729C36.6068 50.2729 37.2248 50.9902 36.9662 51.7706C36.2973 53.7888 34.4806 57.1318 29.7853 57.1318Z" fill="var(--fill-1, black)" fill-opacity="0.2"/>
<path d="M29.7853 57.1318C25.0899 57.1318 23.2733 53.7888 22.6044 51.7706C22.3457 50.9902 22.9638 50.2729 23.7859 50.2729L35.7847 50.2729C36.6068 50.2729 37.2248 50.9902 36.9662 51.7706C36.2973 53.7888 34.4806 57.1318 29.7853 57.1318Z" fill="var(--fill-2, #FF6565)" fill-opacity="0.5"/>
</g>
<path id="Ellipse 121" d="M27.7771 45.0003C27.7771 47.7617 25.2885 50.0003 22.2203 50.0003C19.152 50.0003 16.666 47.7617 16.666 45.0003C16.666 42.2389 19.152 41.667 22.2203 41.667C25.2885 41.667 27.7771 42.2389 27.7771 45.0003Z" fill="url(#paint1_linear_325_1149)" fill-opacity="0.9"/>
<path id="Ellipse 122" d="M44.4431 45.0003C44.4431 47.7617 41.9545 50.0003 38.8863 50.0003C35.818 50.0003 33.332 47.7617 33.332 45.0003C33.332 42.2389 35.818 41.667 38.8863 41.667C41.9545 41.667 44.4431 42.2389 44.4431 45.0003Z" fill="url(#paint2_linear_325_1149)" fill-opacity="0.9"/>
<path id="Polygon 14" d="M25.8003 45.7033C25.1135 45.2836 25.1135 44.2861 25.8003 43.8664L28.4804 42.2285C29.3683 41.686 30.474 41.643 31.4013 42.115C33.583 43.2256 33.5832 46.3424 31.4019 47.4538C30.4744 47.9263 29.3679 47.8836 28.4797 47.3408L25.8003 45.7033Z" fill="var(--fill-0, #62902C)"/>
<path id="Polygon 18" fill-rule="evenodd" clip-rule="evenodd" d="M25.8003 43.8664C25.1135 44.2861 25.1135 45.2836 25.8003 45.7033L28.4797 47.3408C29.3679 47.8836 30.4744 47.9263 31.4019 47.4538C32.1526 47.0713 32.645 46.4513 32.8789 45.7572C32.3339 45.5696 31.9424 45.0524 31.9424 44.4437C31.9424 44.2855 31.8459 43.9724 31.3402 43.6353C30.8442 43.3047 30.0792 43.0548 29.1646 43.0548C28.3189 43.0548 27.5959 43.2675 27.0976 43.5648C26.7672 43.7618 26.3881 43.8061 26.0427 43.7182L25.8003 43.8664Z" fill="var(--fill-0, #62902C)"/>
<path id="Union_2" fill-rule="evenodd" clip-rule="evenodd" d="M29.165 40.2773C30.5513 40.2773 31.8694 40.6499 32.8814 41.3243C33.8837 41.9926 34.7205 43.068 34.7205 44.4439C34.7205 45.211 34.0987 45.8328 33.3317 45.8328C33.1735 45.8327 33.0203 45.8056 32.8786 45.7569C32.3359 45.5683 31.9459 45.0508 31.9455 44.4439C31.9455 44.2858 31.8485 43.9725 31.3433 43.6355C30.8473 43.3049 29.7323 42.2277 28.8178 42.2277C28.6931 42.2277 28.5624 42.2396 28.4299 42.2602L26.2163 43.6138C26.2047 43.6992 26.1677 43.748 26.0454 43.7169L26.0427 43.7196C25.6996 43.6322 25.3894 43.413 25.1936 43.0849C24.8013 42.4264 25.0184 41.5736 25.6765 41.1806C26.6523 40.5986 27.8769 40.2773 29.165 40.2773Z" fill="var(--fill-0, #575A4C)"/>
</g>
<defs>
<linearGradient id="paint0_linear_325_1149" x1="34.5837" y1="17.3497" x2="34.5837" y2="72.2218" gradientUnits="userSpaceOnUse">
<stop stop-color="white" stop-opacity="0"/>
<stop offset="1" stop-color="white"/>
</linearGradient>
<linearGradient id="paint1_linear_325_1149" x1="22.2216" y1="41.667" x2="26.3882" y2="55.5559" gradientUnits="userSpaceOnUse">
<stop stop-color="#1D1D1D"/>
<stop offset="1" stop-color="#838383"/>
</linearGradient>
<linearGradient id="paint2_linear_325_1149" x1="38.8876" y1="41.667" x2="43.0543" y2="55.5559" gradientUnits="userSpaceOnUse">
<stop stop-color="#1D1D1D"/>
<stop offset="1" stop-color="#838383"/>
</linearGradient>
</defs>
</svg>
