<svg preserveAspectRatio="none" width="100%" height="100%" overflow="visible" style="display: block;" viewBox="0 0 66.8433 23.9996" fill="none" xmlns="http://www.w3.org/2000/svg">
<g id="Tripy">
<path id="Vector" d="M55.2899 23.9996C54.653 23.9996 54.0675 23.9588 53.5332 23.8771C52.7794 23.7619 52.4786 23.0463 52.7417 22.2818L53.5161 20.0314C53.8027 20.0967 54.1182 20.1457 54.4626 20.1783C54.8033 20.2273 55.1412 20.2518 55.4764 20.2518C56.5993 20.2518 57.4565 20.0232 58.0481 19.566C58.6565 19.1087 59.07 18.4065 59.2887 17.4594L59.611 16.0631C58.9788 17.0593 58.2412 17.786 57.3982 18.2432C56.559 18.6841 55.6366 18.9046 54.631 18.9046C53.0723 18.9046 51.9919 18.3575 51.3898 17.2634C50.7914 16.153 50.724 14.5934 51.1878 12.5848L52.4885 6.95089H57.793L56.4301 12.8543C56.0945 14.3076 56.4547 15.0343 57.5106 15.0343C58.1642 15.0343 58.7441 14.7731 59.2502 14.2505C59.7731 13.7279 60.1325 13.0421 60.3286 12.1929L61.5388 6.95089H66.8433L64.6717 16.3571C64.0685 18.9699 62.9616 20.8969 61.351 22.138C59.7405 23.3791 57.7201 23.9996 55.2899 23.9996Z" fill="var(--fill-0, #6BC20F)"/>
<path id="Vector_2" d="M37.2135 23.0915L31.7337 23.8508L35.6358 6.94908H40.8649L40.2485 9.61907C40.918 8.6066 41.6807 7.87991 42.5367 7.43899C43.4095 6.99808 44.2565 6.77762 45.0777 6.77762C46.2509 6.77762 47.2362 7.04707 48.0336 7.58596C48.8515 8.10853 49.4211 8.83522 49.7425 9.76604C50.0807 10.6969 50.1065 11.7828 49.82 13.0239C49.5335 14.265 49.0025 15.3673 48.2269 16.3308C47.4682 17.2943 46.5554 18.0536 45.4887 18.6088C44.4425 19.1477 43.3328 19.4172 42.1596 19.4172C41.154 19.4172 40.365 19.2049 39.7927 18.7803C39.2203 18.3557 38.8337 17.7433 38.633 16.9432L37.2135 23.0915ZM41.419 15.5469C42.1397 15.5469 42.7977 15.3101 43.3931 14.8366C43.9885 14.363 44.3653 13.7833 44.5237 13.0974C44.682 12.4115 44.5729 11.8318 44.1962 11.3582C43.8194 10.8847 43.2708 10.6479 42.5501 10.6479C41.8629 10.6479 41.2236 10.8765 40.632 11.3337C40.0441 11.7747 39.6692 12.3462 39.507 13.0484C39.3449 13.7506 39.4503 14.3467 39.8233 14.8366C40.2 15.3101 40.7319 15.5469 41.419 15.5469Z" fill="var(--fill-0, #6BC20F)"/>
<path id="Vector_3" d="M33.4258 6.82474L31.0884 15.6329C30.9219 16.2603 30.946 16.5529 31.337 16.6133C31.5578 16.6442 31.8483 16.6042 32.0947 16.5386L32.5163 16.8674C32.4293 18.1539 30.8602 20.8069 27.7057 20.5182C25.6931 20.3364 25.2439 18.9609 25.9356 16.3547L28.5036 6.67776L33.4258 6.82474ZM28.9732 2.70278C29.3959 1.11007 30.9778 0.038438 32.7196 0.0904483C34.4613 0.142459 35.4541 1.29097 35.0314 2.88368C34.6087 4.47639 33.0268 5.54802 31.2851 5.49601C29.5433 5.444 28.5506 4.29549 28.9732 2.70278Z" fill="var(--fill-0, #6BC20F)"/>
<path id="Vector_4" d="M24.8685 12.7434L24.0774 12.6769C23.9419 11.6784 23.1151 11.5674 22.1258 11.8559C21.2748 12.1443 20.059 12.81 19.6056 13.7641L17.9984 20.6426H13.5041L16.4905 7.86194H20.9847L20.2952 10.813C21.5149 8.74948 23.2774 7.61786 24.8579 7.46254C25.7775 7.37379 26.8987 7.50692 27.2076 8.74948C27.4964 9.8811 26.415 11.9446 24.8685 12.7434Z" fill="var(--fill-0, #6BC20F)"/>
<path id="Vector_5" d="M3.89669 20.6421L6.89396 7.65959H2.99728L3.89081 3.78934H17.5417L16.6482 7.65959H12.7515L9.75426 20.6421H3.89669Z" fill="var(--fill-0, #6BC20F)"/>
</g>
</svg>
